# xmcd CD database file
#
# Track frame offsets:
#	150
#	17427
#	35212
#	52060
#	69629
#	82570
#	97319
#	112264
#	132106
#	147773
#	159215
#	171749
#	186146
#	205543
#
# Disc length: 2984 seconds
#
# Revision: 0
# Processed by: cddbd v1.5.2PL0 Copyright (c) Steve Scherf et al.
# Submitted via: CDex 1.70beta2
#
DISCID=c30ba60e
DTITLE=Bill Leslie - Blue Ridge Reunion
DYEAR=2008
DGENRE=New Age
TTITLE0=The Bluffs
TTITLE1=South Mountains
TTITLE2=Valle Crucis
TTITLE3=Water of Life
TTITLE4=Linville Gorge
TTITLE5=Jonas Ridge
TTITLE6=Moses Owl
TTITLE7=Blue Ridge Reunion
TTITLE8=Swan Ponds
TTITLE9=Climb That Mountain
TTITLE10=Wintercolors
TTITLE11=Great Eyrie
TTITLE12=Mountain Train
TTITLE13=Attacoa
EXTD=YEAR: 2008
EXTT0=
EXTT1=
EXTT2=
EXTT3=
EXTT4=
EXTT5=
EXTT6=
EXTT7=
EXTT8=
EXTT9=
EXTT10=
EXTT11=
EXTT12=
EXTT13=
PLAYORDER=
